<svg id="noun-subscribe-2322541" xmlns="http://www.w3.org/2000/svg" width="29.828" height="24.763" viewBox="0 0 29.828 24.763">
  <path id="Path_2421" data-name="Path 2421" d="M130.953,91.063a7.083,7.083,0,0,0-1.331-4.11,7.492,7.492,0,0,0-1.953-1.852V76.068a.835.835,0,0,0,.007-.128,2.528,2.528,0,0,0-2.491-2.491h-21.5a2.523,2.523,0,0,0-1.885.793,2.627,2.627,0,0,0-.672,1.8V92.393a2.539,2.539,0,0,0,1.272,2.216,4.41,4.41,0,0,0,2.225.318h13.218c.059.092.125.187.19.275a7.333,7.333,0,0,0,3.55,2.642,7.106,7.106,0,0,0,9.279-5.627,8,8,0,0,0,.1-1.121v-.033Zm-14.165-.924a7.845,7.845,0,0,0,.02,2.055c0,.03.01.059.013.088.036.229.085.456.144.682h-11.6c-.577,0-1.154.007-1.731,0a.74.74,0,0,1-.085,0l.151.03-.213-.03.066.03-.072-.03a.192.192,0,0,1-.043-.007c.013,0,.023,0,.036,0l-.115-.049c.039.036,0,.013-.043-.016s-.108-.085-.02-.036a.3.3,0,0,1-.046-.046c-.016-.016-.036-.036-.052-.056l.013.023c.043.072-.007.013-.043-.036s-.056-.075-.016-.036l-.049-.118c0,.013,0,.023,0,.036,0-.013,0-.03-.007-.043s-.02-.049-.029-.072c.01.023.02.043.029.066-.007-.056-.013-.108-.023-.164.007.036.013.072.023.108-.01-.164,0-.328,0-.485V77.923c0-.656-.007-1.308,0-1.963a.8.8,0,0,1,0-.089c-.01.049-.02.1-.029.151.01-.072.02-.141.029-.213-.01.023-.02.043-.029.066.01-.023.02-.049.029-.072a.192.192,0,0,1,.007-.043c0,.013,0,.023,0,.036.016-.039.033-.075.049-.115-.036.039-.013,0,.016-.043s.085-.108.036-.02a.3.3,0,0,1,.046-.046c.016-.016.036-.036.056-.052l-.023.013c-.072.043-.013-.007.036-.046s.075-.052.036-.013l.118-.049c-.013,0-.026,0-.036,0,.013,0,.029,0,.043-.007l.072-.029-.066.029c.056-.007.108-.013.164-.023l-.1.02c.206-.013.416,0,.623,0h18.416c.859,0,1.717,0,2.576,0a.924.924,0,0,1,.1,0l-.151-.029.213.029-.066-.029.072.029a.192.192,0,0,1,.043.007c-.013,0-.023,0-.036,0l.115.049c-.039-.036,0-.013.043.016s.108.085.02.036a.3.3,0,0,1,.046.046c.016.016.036.036.052.056l-.013-.023c-.043-.072.007-.013.043.036s.052.075.016.036c.016.043.033.082.052.125a.341.341,0,0,1,.013.033l.01.02-.01-.02c0,.013,0,.026,0,.036,0,.033.01.066.013.1a.674.674,0,0,0-.016-.079v8.338a7.243,7.243,0,0,0-3.877.026h0c-.141.043-.282.092-.42.144a7.353,7.353,0,0,0-3.3,2.468,6.85,6.85,0,0,0-1.324,3.268Zm12.16,1.665a6.127,6.127,0,0,1-.341,1.255,6.64,6.64,0,0,1-.518.947c-.049.075-.1.147-.157.22.01-.01.02-.023.033-.036l-.039.049s-.007.01-.01.013c-.023.033-.069.085-.069.085a5.259,5.259,0,0,1-.367.4c-.131.131-.269.256-.41.377l-.03.029-.043.03c-.082.059-.164.118-.246.174a6.224,6.224,0,0,1-.928.511,5.138,5.138,0,0,1-2.711.351,6.157,6.157,0,0,1-1.252-.341,6.042,6.042,0,0,1-.9-.492c-.079-.052-.154-.1-.233-.161-.039-.026-.075-.056-.111-.085l.033.023c-.144-.121-.285-.243-.416-.374s-.262-.269-.383-.413l-.079-.1c-.046-.062-.092-.125-.134-.187a5.875,5.875,0,0,1-.554-.993,5.159,5.159,0,0,1-.351-2.694,6,6,0,0,1,.344-1.268,6.645,6.645,0,0,1,.518-.947c.049-.075.1-.147.157-.22-.01.01-.02.023-.033.036l.039-.049s.007-.01.01-.013c.023-.033.069-.085.069-.085a5.256,5.256,0,0,1,.367-.4c.131-.131.269-.256.41-.377l.03-.029q-.025.015-.02.01l.007-.007c-.056.036.046-.056.092-.079a.482.482,0,0,0-.075.059.575.575,0,0,1,.085-.059s.007,0,.01,0c.059-.043.118-.085.18-.125a6.3,6.3,0,0,1,.859-.479c-.02.007-.039.016-.059.023l.069-.029c.02-.01.039-.016.059-.026l.066-.026a.227.227,0,0,1,.043-.016l-.033.013a6.22,6.22,0,0,1,1.186-.318l-.082.01a.362.362,0,0,1,.059-.007.489.489,0,0,1-.069.007l.262-.036c-.036.007-.072.01-.111.016.039-.007.079-.01.121-.016l-.131.02q.216-.025.433-.029a.3.3,0,0,0,.056,0c.033,0,.062,0,.1,0h.2c.033,0,.066,0,.1,0a.318.318,0,0,1,.056,0c.026,0,.049,0,.075,0h0c.121.007.243.016.361.03l-.069-.01a.362.362,0,0,0,.059.007c-.039-.007-.079-.013-.118-.016l.262.036a.444.444,0,0,0-.066-.007l.056.007-.072-.01a6.256,6.256,0,0,1,1.167.311h0c.026.01.049.016.072.026l.069.03c.128.059.256.121.38.19.187.1.367.21.541.328.066.043.125.089.187.131.033.026.066.052.1.082.151.125.292.259.429.4s.256.272.374.42c.007.007.02.023.033.039a.225.225,0,0,0,.016.023c.056.075.108.154.161.229a6.393,6.393,0,0,1,.5.9,6.23,6.23,0,0,1,.344,1.236,7.323,7.323,0,0,1,.039.757c-.007.243-.023.479-.046.718Zm-2.822-1.7h-1.308V88.794a.983.983,0,1,0-1.966,0v1.311h-1.308a.983.983,0,0,0,0,1.966h1.308v1.3a.983.983,0,1,0,1.966,0v-1.3h1.308a.983.983,0,0,0,0-1.966Z" transform="translate(-101.124 -73.449)" fill="#721f81"/>
  <path id="Path_2422" data-name="Path 2422" d="M174.755,139.108l-1.108.669q-2.434,1.47-4.867,2.937l-3.081,1.858a.979.979,0,0,1-.993,0c-.37-.233-.741-.462-1.111-.695q-2.443-1.524-4.88-3.048l-3.064-1.914a.984.984,0,0,1,1-1.7c.37.233.741.462,1.111.695q2.443,1.524,4.88,3.048,1.288.806,2.576,1.609c.2-.121.4-.243.6-.364q2.434-1.47,4.867-2.937l3.081-1.858a.983.983,0,1,1,.99,1.7Z" transform="translate(-151.934 -133.271)" fill="#008641"/>
</svg>
