<svg xmlns="http://www.w3.org/2000/svg" width="31.861" height="31.86" viewBox="0 0 31.861 31.86">
  <g id="Group_3644" data-name="Group 3644" transform="translate(-72 -453.14)">
    <g id="Group_3576" data-name="Group 3576" transform="translate(2645.503 -14339.86)">
      <g id="noun-payment-4983277" transform="translate(-2573.503 14793)">
        <path id="Path_2413" data-name="Path 2413" d="M143.348,54.427h-6.564V48.362a3.437,3.437,0,0,0-3.435-3.431h-15a3.437,3.437,0,0,0-3.435,3.431v25a3.437,3.437,0,0,0,3.435,3.431h24.994a3.437,3.437,0,0,0,3.432-3.431v-15.5a3.438,3.438,0,0,0-3.432-3.435Zm0,1.867a1.568,1.568,0,0,1,1.565,1.568v1.566h-8.129V56.294Zm-24.994-9.5h14.995a1.57,1.57,0,0,1,1.568,1.565V66.929H116.787V48.362a1.568,1.568,0,0,1,1.568-1.565Zm-1.568,26.564V68.795h18.131v4.566h0a1.568,1.568,0,0,1-1.568,1.565h-15a1.568,1.568,0,0,1-1.568-1.565Zm26.562,1.565H136.4a3.432,3.432,0,0,0,.38-1.565V71.793h3.064a.934.934,0,1,0,0-1.867h-3.064V66.795h3.064a.934.934,0,1,0,0-1.867h-3.064V61.3h8.129V73.361a1.565,1.565,0,0,1-1.565,1.565Zm-17.5-5.5a2.434,2.434,0,1,0,1.72.713A2.433,2.433,0,0,0,125.851,69.427Zm0,3a.566.566,0,1,1,.4-.166.566.566,0,0,1-.4.166Z" transform="translate(-114.919 -44.931)" fill="#008641" fill-rule="evenodd"/>
        <path id="Path_2414" data-name="Path 2414" d="M143.348,54.427h-6.564V48.362a3.437,3.437,0,0,0-3.435-3.431h-15a3.437,3.437,0,0,0-3.435,3.431v25a3.437,3.437,0,0,0,3.435,3.431h24.994a3.437,3.437,0,0,0,3.432-3.431v-15.5a3.438,3.438,0,0,0-3.432-3.435Zm0,1.867a1.568,1.568,0,0,1,1.565,1.568v1.566h-8.129V56.294Zm-24.994-9.5h14.995a1.57,1.57,0,0,1,1.568,1.565V66.929H116.787V48.362a1.568,1.568,0,0,1,1.568-1.565Zm-1.568,26.564V68.795h18.131v4.566h0a1.568,1.568,0,0,1-1.568,1.565h-15a1.568,1.568,0,0,1-1.568-1.565Zm26.562,1.565H136.4a3.432,3.432,0,0,0,.38-1.565V71.793h3.064a.934.934,0,1,0,0-1.867h-3.064V66.795h3.064a.934.934,0,1,0,0-1.867h-3.064V61.3h8.129V73.361a1.565,1.565,0,0,1-1.565,1.565Z" transform="translate(-114.919 -44.931)" fill="#721f81" fill-rule="evenodd"/>
      </g>
    </g>
    <path id="Path_2415" data-name="Path 2415" d="M6.824-7.1c0-1.569-1.311-2.026-2.529-2.354V-11.47a3.044,3.044,0,0,1,1.569.82l.785-1.019A3.849,3.849,0,0,0,4.3-12.723v-1.1H3.358v1.077A2.417,2.417,0,0,0,.876-10.475c0,1.522,1.276,1.967,2.482,2.272v2.26A3.443,3.443,0,0,1,1.391-6.986L.63-5.932A4.059,4.059,0,0,0,3.358-4.7V-3.66H4.3V-4.714C6.051-4.878,6.824-5.909,6.824-7.1ZM2.281-10.569c0-.527.41-.89,1.077-.96V-9.7C2.738-9.878,2.281-10.112,2.281-10.569ZM4.3-7.958c.656.2,1.136.445,1.136.984,0,.445-.328.913-1.136,1.03Z" transform="translate(79.02 473.73)" fill="#008641"/>
  </g>
</svg>
