<svg xmlns="http://www.w3.org/2000/svg" width="29.556" height="29.55" viewBox="0 0 29.556 29.55">
  <g id="Group_3676" data-name="Group 3676" transform="translate(-72 -314.451)">
    <path id="Path_2416" data-name="Path 2416" d="M203.237,14.738H190.6a2.708,2.708,0,0,0-2.709,2.709V41.579a2.708,2.708,0,0,0,2.709,2.709h12.641a2.708,2.708,0,0,0,2.709-2.709V17.447a2.708,2.708,0,0,0-2.709-2.709ZM190.6,16.38h12.641a1.067,1.067,0,0,1,1.067,1.067V39.363H189.529V17.447A1.067,1.067,0,0,1,190.6,16.38Zm12.641,26.266H190.6a1.067,1.067,0,0,1-1.067-1.067V41H204.3v.575a1.067,1.067,0,0,1-1.067,1.067Z" transform="translate(-110.138 299.713)" fill="#721f81"/>
    <path id="Path_2417" data-name="Path 2417" d="M306.614,60.591H309.9a.821.821,0,0,0,0-1.642h-3.283a.821.821,0,0,0,0,1.642Z" transform="translate(-221.478 257.964)" fill="#008641"/>
    <path id="Path_2418" data-name="Path 2418" d="M87.958,88.418a.821.821,0,0,0-.821.821V106.96l-1.059-1.067h0a.824.824,0,1,0-1.166,1.166l2.462,2.462a.82.82,0,0,0,.583.238.687.687,0,0,0,.312-.066.821.821,0,0,0,.509-.755v-19.7a.821.821,0,0,0-.821-.821Z" transform="translate(-12.672 230.137)" fill="#721f81"/>
    <path id="Path_2419" data-name="Path 2419" d="M545.446,91.151l-2.463-2.462a.825.825,0,0,0-1.4.583v19.7a.821.821,0,1,0,1.642,0V91.25l1.059,1.067h0a.824.824,0,1,0,1.166-1.166Z" transform="translate(-444.131 230.104)" fill="#721f81"/>
    <path id="Path_2420" data-name="Path 2420" d="M294.95,185.463h-3.078a.821.821,0,0,0,0,1.642h1.642v.411a.821.821,0,0,0,1.642,0v-.435a2.659,2.659,0,0,0-.205-5.311h-1.231a1.026,1.026,0,1,1,0-2.052H296.8a.821.821,0,1,0,0-1.642h-1.642v-.411a.821.821,0,0,0-1.642,0v.435a2.659,2.659,0,0,0,.205,5.311h1.231a1.026,1.026,0,1,1,0,2.052Z" transform="translate(-207.557 146.636)" fill="#008641"/>
  </g>
</svg>
